<svg xmlns="http://www.w3.org/2000/svg" viewBox="0 0 32 32">
  <circle cx="16" cy="16" r="15" fill="#3a2800"/>
  <circle cx="16" cy="16" r="14" fill="#7a5500"/>
  <circle cx="16" cy="16" r="12.5" fill="#a87800"/>
  <circle cx="16" cy="16" r="11"   fill="#c09010"/>
  <circle cx="16" cy="16" r="9.5"  fill="#d8aa28"/>
  <circle cx="16" cy="16" r="8"    fill="#eac040"/>
  <circle cx="16" cy="16" r="6.5"  fill="#f5d858"/>
  <circle cx="16" cy="16" r="5"    fill="#fce870"/>
  <ellipse cx="12.5" cy="10" rx="6.5" ry="4.5" fill="#fffacc" opacity="0.55"/>
  <ellipse cx="11.5" cy="9"  rx="3.2" ry="2.2" fill="#ffffff" opacity="0.4"/>
  <circle cx="16" cy="16" r="14.5" fill="none" stroke="#241800" stroke-width="1.5"/>
  <circle cx="16" cy="16" r="11.8" fill="none" stroke="#9a7000" stroke-width="0.8"/>
  <circle cx="16" cy="16" r="8.5"  fill="none" stroke="#c09010" stroke-width="0.4" opacity="0.5"/>
  <circle cx="16" cy="16" r="14.8" fill="none" stroke="#c8a040" stroke-width="0.3" opacity="0.4"/>
  <polygon points="16,6 17.4,13.2 16,14.2 14.6,13.2" fill="#4a3000" opacity="0.9"/>
  <polygon points="16,26 17.4,18.8 16,17.8 14.6,18.8" fill="#4a3000" opacity="0.9"/>
  <polygon points="6,16 13.2,17.4 14.2,16 13.2,14.6" fill="#4a3000" opacity="0.9"/>
  <polygon points="26,16 18.8,14.6 17.8,16 18.8,17.4" fill="#4a3000" opacity="0.9"/>
  <circle cx="16" cy="16" r="1.5" fill="#4a3000" opacity="0.9"/>
</svg>
